# xmcd CD database file
#
# Track frame offsets:
#	150
#	12187
#	62582
#	95300
#	109025
#	121072
#	130952
#	150305
#	169990
#	204196
#	213460
#	224625
#	236327
#	264642
#	297967
#	333425
#
# Disc length: 4601 seconds
#
# Revision: 0
# Processed by: cddbd v1.5.1PL0 Copyright (c) Steve Scherf et al.
# Submitted via: CDex 1.51
#
DISCID=e111f710
DTITLE=小林沙苗　 他 - Memories Off 〜それから〜　ラジオ劇場
DYEAR=2004
DGENRE=Vocal
TTITLE0=小林沙苗 ( 陵 いのり )／いのりのおもいで
TTITLE1=第1話 『バースデイ・ソング』 第一章
TTITLE2=第1話 『バースデイ・ソング』 第二章
TTITLE3=第1話 『バースデイ・ソング』 第三章
TTITLE4=榎本温子 ( 花祭果凛 )／果凛のおもいで
TTITLE5=こやまきみこ ( 野乃原葉夜 )／葉夜のおもいで
TTITLE6=第2話 『シークレット・ナイトメア』 第一章
TTITLE7=第2話 『シークレット・ナイトメア』 第二章
TTITLE8=第2話 『シークレット・ナイトメア』 第三章
TTITLE9=村田あゆみ ( 黒須カナタ )／カナタのおもいで
TTITLE10=白石涼子 ( 木瀬 歩 )／歩のおもいで
TTITLE11=小林由美子 ( 力丸さより )／さよりんのおもいで
TTITLE12=第3話 『明るく仲良く元気よく！』 第一章
TTITLE13=第3話 『明るく仲良く元気よく！』 第二章
TTITLE14=第3話 『明るく仲良く元気よく！』 第三章
TTITLE15=かかずゆみ ( 藤原 雅 )／雅のおもいで
EXTD=YEAR: 2004
EXTT0=
EXTT1=
EXTT2=
EXTT3=
EXTT4=
EXTT5=
EXTT6=
EXTT7=
EXTT8=
EXTT9=
EXTT10=
EXTT11=
EXTT12=
EXTT13=
EXTT14=
EXTT15=
PLAYORDER=
